<svg width="1920" height="725" viewBox="0 0 1920 725" fill="none" xmlns="http://www.w3.org/2000/svg">
<path d="M357.87 705.4C392.217 705.4 420.06 677.557 420.06 643.21C420.06 608.863 392.217 581.02 357.87 581.02C323.523 581.02 295.68 608.863 295.68 643.21C295.68 677.557 323.523 705.4 357.87 705.4Z" fill="white"/>
<path d="M219.9 659.74C254.247 659.74 282.09 631.896 282.09 597.55C282.09 563.203 254.247 535.36 219.9 535.36C185.553 535.36 157.71 563.203 157.71 597.55C157.71 631.896 185.553 659.74 219.9 659.74Z" fill="white"/>
<path d="M118.1 562.03C152.447 562.03 180.29 534.186 180.29 499.84C180.29 465.493 152.447 437.65 118.1 437.65C83.7533 437.65 55.9099 465.493 55.9099 499.84C55.9099 534.186 83.7533 562.03 118.1 562.03Z" fill="white"/>
<path d="M81.2801 420.62C115.627 420.62 143.47 392.777 143.47 358.43C143.47 324.083 115.627 296.24 81.2801 296.24C46.9335 296.24 19.0901 324.083 19.0901 358.43C19.0901 392.777 46.9335 420.62 81.2801 420.62Z" fill="white"/>
<path d="M122.03 283.14C156.377 283.14 184.22 255.297 184.22 220.95C184.22 186.603 156.377 158.76 122.03 158.76C87.6835 158.76 59.8401 186.603 59.8401 220.95C59.8401 255.297 87.6835 283.14 122.03 283.14Z" fill="white"/>
<path d="M223.18 184.45C257.527 184.45 285.37 156.607 285.37 122.26C285.37 87.9135 257.527 60.0701 223.18 60.0701C188.833 60.0701 160.99 87.9135 160.99 122.26C160.99 156.607 188.833 184.45 223.18 184.45Z" fill="white"/>
<path d="M367.04 154.34C401.387 154.34 429.23 126.497 429.23 92.15C429.23 57.8034 401.387 29.96 367.04 29.96C332.694 29.96 304.85 57.8034 304.85 92.15C304.85 126.497 332.694 154.34 367.04 154.34Z" fill="white"/>
<path d="M505.83 192.96C540.177 192.96 568.02 165.117 568.02 130.77C568.02 96.4235 540.177 68.5801 505.83 68.5801C471.484 68.5801 443.64 96.4235 443.64 130.77C443.64 165.117 471.484 192.96 505.83 192.96Z" fill="white"/>
<path d="M607.3 296.24C641.646 296.24 669.49 268.397 669.49 234.05C669.49 199.704 641.646 171.86 607.3 171.86C572.953 171.86 545.11 199.704 545.11 234.05C545.11 268.397 572.953 296.24 607.3 296.24Z" fill="white"/>
<path d="M575.04 405.28C575.04 429.45 567.49 447.94 552.38 460.74C537.27 473.54 515.79 479.94 487.93 479.94H467.5V559.83H419.88V335.22H491.63C518.87 335.22 539.59 341.08 553.77 352.81C567.95 364.54 575.05 382.03 575.05 405.27L575.04 405.28ZM467.5 440.93H483.17C497.82 440.93 508.77 438.04 516.05 432.25C523.32 426.46 526.96 418.04 526.96 406.98C526.96 395.92 523.91 387.57 517.82 382.25C511.73 376.93 502.17 374.26 489.17 374.26H467.51V440.94L467.5 440.93Z" fill="white"/>
<path d="M709.62 384.85C715.97 384.85 721.24 385.31 725.44 386.23L721.91 430.17C718.12 429.15 713.51 428.63 708.08 428.63C693.12 428.63 681.48 432.47 673.13 440.15C664.78 447.83 660.61 458.59 660.61 472.41V559.83H613.75V388.07H649.24L656.15 416.95H658.45C663.77 407.32 670.97 399.57 680.03 393.68C689.09 387.79 698.95 384.85 709.6 384.85H709.62Z" fill="white"/>
<path d="M912.72 473.65C912.72 501.61 905.35 523.48 890.6 539.25C875.85 555.02 855.32 562.91 828.99 562.91C812.5 562.91 797.96 559.3 785.36 552.08C772.76 544.86 763.08 534.49 756.32 520.97C749.56 507.45 746.18 491.68 746.18 473.65C746.18 445.59 753.5 423.77 768.15 408.2C782.8 392.63 803.38 384.85 829.91 384.85C846.4 384.85 860.94 388.44 873.54 395.6C886.14 402.77 895.82 413.06 902.58 426.48C909.34 439.9 912.72 455.62 912.72 473.64V473.65ZM793.97 473.65C793.97 490.65 796.76 503.51 802.34 512.21C807.92 520.92 817.01 525.27 829.61 525.27C842.21 525.27 851.09 520.94 856.57 512.29C862.05 503.64 864.79 490.76 864.79 473.65C864.79 456.54 862.02 443.9 856.49 435.4C850.96 426.9 841.9 422.65 829.3 422.65C816.7 422.65 807.79 426.87 802.26 435.32C796.73 443.77 793.96 456.55 793.96 473.65H793.97Z" fill="white"/>
<path d="M1005.82 562.91C985.64 562.91 969.79 555.08 958.27 539.41C946.75 523.74 940.99 502.03 940.99 474.27C940.99 446.51 946.85 424.16 958.58 408.44C970.31 392.72 986.46 384.86 1007.05 384.86C1028.66 384.86 1045.15 393.26 1056.52 410.06H1058.06C1055.7 397.26 1054.53 385.84 1054.53 375.8V320.8H1101.54V559.85H1065.59L1056.53 537.57H1054.53C1043.88 554.47 1027.65 562.92 1005.83 562.92L1005.82 562.91ZM1022.26 525.58C1034.24 525.58 1043.02 522.1 1048.61 515.13C1054.19 508.17 1057.24 496.34 1057.75 479.64V474.57C1057.75 456.13 1054.91 442.92 1049.22 434.93C1043.54 426.94 1034.29 422.95 1021.49 422.95C1011.04 422.95 1002.92 427.38 997.14 436.24C991.35 445.1 988.46 457.98 988.46 474.88C988.46 491.78 991.38 504.45 997.22 512.9C1003.06 521.35 1011.4 525.57 1022.26 525.57V525.58Z" fill="white"/>
<path d="M1272.22 559.83L1265.92 537.86H1263.46C1258.44 545.85 1251.32 552.02 1242.11 556.37C1232.89 560.72 1222.39 562.9 1210.62 562.9C1190.44 562.9 1175.23 557.5 1164.99 546.69C1154.75 535.89 1149.63 520.34 1149.63 500.06V388.06H1196.49V488.38C1196.49 500.77 1198.69 510.07 1203.1 516.26C1207.5 522.46 1214.52 525.55 1224.15 525.55C1237.26 525.55 1246.73 521.17 1252.57 512.42C1258.41 503.67 1261.33 489.14 1261.33 468.87V388.06H1308.19V559.82H1272.24L1272.22 559.83Z" fill="white"/>
<path d="M1411.71 562.91C1391.53 562.91 1375.68 555.08 1364.16 539.41C1352.64 523.74 1346.88 502.03 1346.88 474.27C1346.88 446.51 1352.74 424.16 1364.47 408.44C1376.2 392.72 1392.35 384.86 1412.94 384.86C1434.55 384.86 1451.04 393.26 1462.41 410.06H1463.95C1461.59 397.26 1460.42 385.84 1460.42 375.8V320.8H1507.43V559.85H1471.48L1462.42 537.57H1460.42C1449.77 554.47 1433.54 562.92 1411.72 562.92L1411.71 562.91ZM1428.15 525.58C1440.13 525.58 1448.91 522.1 1454.5 515.13C1460.08 508.17 1463.13 496.34 1463.64 479.64V474.57C1463.64 456.13 1460.8 442.92 1455.11 434.93C1449.43 426.94 1440.18 422.95 1427.38 422.95C1416.93 422.95 1408.81 427.38 1403.03 436.24C1397.24 445.1 1394.35 457.98 1394.35 474.88C1394.35 491.78 1397.27 504.45 1403.11 512.9C1408.95 521.35 1417.29 525.57 1428.15 525.57V525.58Z" fill="white"/>
<path d="M1665.51 559.83L1656.45 536.48H1655.22C1647.33 546.42 1639.22 553.3 1630.87 557.14C1622.52 560.98 1611.64 562.9 1598.22 562.9C1581.73 562.9 1568.75 558.19 1559.27 548.77C1549.8 539.35 1545.06 525.93 1545.06 508.52C1545.06 491.11 1551.44 476.85 1564.19 468.19C1576.94 459.54 1596.17 454.75 1621.88 453.83L1651.68 452.91V445.38C1651.68 427.97 1642.77 419.26 1624.95 419.26C1611.22 419.26 1595.09 423.41 1576.56 431.7L1561.04 400.05C1580.81 389.71 1602.72 384.53 1626.79 384.53C1650.86 384.53 1667.5 389.55 1679.79 399.59C1692.08 409.63 1698.23 424.89 1698.23 445.37V559.82H1665.51V559.83ZM1651.68 480.25L1633.55 480.86C1619.93 481.27 1609.79 483.73 1603.13 488.23C1596.47 492.74 1593.14 499.6 1593.14 508.82C1593.14 522.03 1600.72 528.64 1615.88 528.64C1626.74 528.64 1635.42 525.52 1641.92 519.27C1648.42 513.02 1651.67 504.73 1651.67 494.38V480.25H1651.68Z" fill="white"/>
<path d="M1721.89 388.08H1773.2L1805.62 484.71C1808.38 493.11 1810.28 503.04 1811.3 514.51H1812.22C1813.35 503.96 1815.55 494.03 1818.83 484.71L1850.63 388.08H1900.87L1828.2 581.81C1821.54 599.73 1812.04 613.15 1799.7 622.06C1787.36 630.97 1772.94 635.43 1756.45 635.43C1748.36 635.43 1740.42 634.56 1732.64 632.82V595.64C1738.27 596.97 1744.42 597.64 1751.08 597.64C1759.38 597.64 1766.62 595.1 1772.82 590.04C1779.02 584.97 1783.85 577.31 1787.34 567.07L1790.11 558.62L1721.9 388.09L1721.89 388.08Z" fill="white"/>
<path d="M542.33 662.24H536.59L526.5 628.77C526.02 627.29 525.49 625.42 524.89 623.16C524.3 620.9 523.99 619.55 523.97 619.09C523.47 622.1 522.67 625.39 521.58 628.97L511.8 662.24H506.06L492.76 612.26H498.91L506.81 643.13C507.9 647.46 508.7 651.38 509.2 654.89C509.82 650.72 510.73 646.64 511.93 642.65L520.89 612.26H527.04L536.44 642.93C537.53 646.46 538.46 650.45 539.21 654.9C539.64 651.66 540.46 647.72 541.67 643.07L549.53 612.27H555.68L542.31 662.25L542.33 662.24Z" fill="white"/>
<path d="M626.4 662.24H598.54V612.26H626.4V617.42H604.35V633.52H625.07V638.65H604.35V657.04H626.4V662.24Z" fill="white"/>
<path d="M672.49 662.24V612.26H678.3V656.98H700.35V662.24H672.49Z" fill="white"/>
<path d="M743.84 662.24V612.26H749.65V656.98H771.7V662.24H743.84Z" fill="white"/>
<path d="M854.24 662.24H847.61L820.29 620.29H820.02C820.38 625.21 820.57 629.73 820.57 633.83V662.24H815.2V612.26H821.76L849.01 654.04H849.28C849.23 653.42 849.13 651.45 848.97 648.11C848.81 644.77 848.75 642.38 848.8 640.95V612.27H854.24V662.25V662.24Z" fill="white"/>
<path d="M930.86 662.24H903V612.26H930.86V617.42H908.81V633.52H929.53V638.65H908.81V657.04H930.86V662.24Z" fill="white"/>
<path d="M1005.15 648.94C1005.15 653.34 1003.55 656.77 1000.36 659.23C997.17 661.69 992.84 662.92 987.37 662.92C981.44 662.92 976.88 662.16 973.69 660.63V655.02C975.74 655.89 977.98 656.57 980.39 657.07C982.81 657.57 985.2 657.82 987.57 657.82C991.44 657.82 994.36 657.08 996.32 655.61C998.28 654.14 999.26 652.09 999.26 649.47C999.26 647.74 998.91 646.32 998.22 645.21C997.53 644.1 996.36 643.09 994.73 642.15C993.1 641.22 990.62 640.16 987.29 638.97C982.64 637.31 979.32 635.33 977.32 633.05C975.32 630.77 974.33 627.8 974.33 624.13C974.33 620.28 975.78 617.21 978.67 614.93C981.56 612.65 985.39 611.51 990.16 611.51C994.93 611.51 999.7 612.42 1003.87 614.25L1002.06 619.31C997.93 617.58 993.92 616.71 990.03 616.71C986.95 616.71 984.55 617.37 982.82 618.69C981.09 620.01 980.22 621.85 980.22 624.19C980.22 625.92 980.54 627.34 981.18 628.45C981.82 629.56 982.89 630.57 984.41 631.49C985.93 632.41 988.24 633.43 991.37 634.55C996.61 636.42 1000.22 638.43 1002.19 640.57C1004.16 642.71 1005.15 645.49 1005.15 648.91V648.94Z" fill="white"/>
<path d="M1078.59 648.94C1078.59 653.34 1076.99 656.77 1073.8 659.23C1070.61 661.69 1066.28 662.92 1060.81 662.92C1054.88 662.92 1050.32 662.16 1047.13 660.63V655.02C1049.18 655.89 1051.42 656.57 1053.83 657.07C1056.25 657.57 1058.64 657.82 1061.01 657.82C1064.88 657.82 1067.8 657.08 1069.76 655.61C1071.72 654.14 1072.7 652.09 1072.7 649.47C1072.7 647.74 1072.35 646.32 1071.66 645.21C1070.97 644.1 1069.8 643.09 1068.17 642.15C1066.54 641.22 1064.06 640.16 1060.73 638.97C1056.08 637.31 1052.76 635.33 1050.76 633.05C1048.76 630.77 1047.77 627.8 1047.77 624.13C1047.77 620.28 1049.22 617.21 1052.11 614.93C1055 612.65 1058.83 611.51 1063.6 611.51C1068.37 611.51 1073.14 612.42 1077.31 614.25L1075.5 619.31C1071.37 617.58 1067.36 616.71 1063.47 616.71C1060.39 616.71 1057.99 617.37 1056.26 618.69C1054.53 620.01 1053.66 621.85 1053.66 624.19C1053.66 625.92 1053.98 627.34 1054.62 628.45C1055.26 629.56 1056.33 630.57 1057.85 631.49C1059.37 632.41 1061.68 633.43 1064.81 634.55C1070.05 636.42 1073.66 638.43 1075.63 640.57C1077.6 642.71 1078.59 645.49 1078.59 648.91V648.94Z" fill="white"/>
<path d="M1192.4 662.24H1186.59V617.42H1170.76V612.26H1208.23V617.42H1192.4V662.24Z" fill="white"/>
<path d="M1256.57 641.45V662.24H1250.76V612.26H1264.47C1270.6 612.26 1275.13 613.43 1278.06 615.78C1280.99 618.13 1282.45 621.66 1282.45 626.38C1282.45 632.99 1279.1 637.46 1272.4 639.78L1285.97 662.24H1279.1L1267 641.45H1256.57ZM1256.57 636.46H1264.54C1268.64 636.46 1271.65 635.65 1273.57 634.02C1275.49 632.39 1276.44 629.95 1276.44 626.69C1276.44 623.43 1275.47 621 1273.52 619.54C1271.57 618.08 1268.44 617.35 1264.14 617.35H1256.58V636.46H1256.57Z" fill="white"/>
<path d="M1360.48 662.24L1354.26 646.34H1334.22L1328.07 662.24H1322.19L1341.95 612.05H1346.84L1366.5 662.24H1360.48ZM1352.44 641.11L1346.63 625.62C1345.88 623.66 1345.1 621.26 1344.3 618.41C1343.8 620.6 1343.08 623 1342.15 625.62L1336.27 641.11H1352.44Z" fill="white"/>
<path d="M1429.78 616.73C1424.29 616.73 1419.95 618.56 1416.77 622.22C1413.59 625.88 1412 630.89 1412 637.25C1412 643.61 1413.53 648.85 1416.6 652.41C1419.66 655.98 1424.04 657.76 1429.71 657.76C1433.2 657.76 1437.17 657.13 1441.64 655.88V660.97C1438.18 662.27 1433.9 662.92 1428.82 662.92C1421.46 662.92 1415.78 660.69 1411.78 656.22C1407.78 651.75 1405.78 645.41 1405.78 637.18C1405.78 632.03 1406.74 627.52 1408.67 623.64C1410.6 619.77 1413.38 616.78 1417.01 614.68C1420.64 612.58 1424.92 611.53 1429.85 611.53C1435.09 611.53 1439.67 612.49 1443.59 614.4L1441.13 619.39C1437.35 617.61 1433.56 616.72 1429.78 616.72V616.73Z" fill="white"/>
<path d="M1523.66 662.24H1516.82L1498.6 638L1493.37 642.65V662.24H1487.56V612.26H1493.37V637.05L1516.04 612.26H1522.91L1502.81 633.97L1523.67 662.24H1523.66Z" fill="white"/>
<path d="M1593.4 662.24H1565.54V612.26H1593.4V617.42H1571.35V633.52H1592.07V638.65H1571.35V657.04H1593.4V662.24Z" fill="white"/>
<path d="M1645.3 641.45V662.24H1639.49V612.26H1653.2C1659.33 612.26 1663.86 613.43 1666.79 615.78C1669.72 618.13 1671.18 621.66 1671.18 626.38C1671.18 632.99 1667.83 637.46 1661.13 639.78L1674.7 662.24H1667.83L1655.73 641.45H1645.3ZM1645.3 636.46H1653.27C1657.37 636.46 1660.38 635.65 1662.3 634.02C1664.22 632.39 1665.17 629.95 1665.17 626.69C1665.17 623.43 1664.2 621 1662.25 619.54C1660.3 618.08 1657.17 617.35 1652.87 617.35H1645.31V636.46H1645.3Z" fill="white"/>
</svg>
