<?xml version="1.0" encoding="UTF-8"?>
<svg id="Capa_1" data-name="Capa 1" xmlns="http://www.w3.org/2000/svg" xmlns:xlink="http://www.w3.org/1999/xlink" viewBox="0 0 1920 724.91">
  <defs>
    <style>
      .cls-1 {
        fill: url(#Degradado_sin_nombre_6);
      }

      .cls-2 {
        fill: url(#Degradado_sin_nombre_16);
      }

      .cls-3 {
        fill: url(#Degradado_sin_nombre_9);
      }

      .cls-4 {
        fill: url(#Degradado_sin_nombre_21);
      }

      .cls-5 {
        fill: url(#Degradado_sin_nombre_10);
      }

      .cls-6 {
        fill: url(#Degradado_sin_nombre_18);
      }

      .cls-7 {
        fill: url(#Degradado_sin_nombre_15);
      }

      .cls-8 {
        fill: url(#Degradado_sin_nombre_8);
      }

      .cls-9 {
        fill: url(#Degradado_sin_nombre_12);
      }
    </style>
    <linearGradient id="Degradado_sin_nombre_6" data-name="Degradado sin nombre 6" x1="295.68" y1="643.21" x2="420.07" y2="643.21" gradientUnits="userSpaceOnUse">
      <stop offset="0" stop-color="#08b2db"/>
      <stop offset="1" stop-color="#0e74b5"/>
    </linearGradient>
    <linearGradient id="Degradado_sin_nombre_8" data-name="Degradado sin nombre 8" x1="157.71" y1="597.55" x2="282.1" y2="597.55" gradientUnits="userSpaceOnUse">
      <stop offset="0" stop-color="#00dad5"/>
      <stop offset="1" stop-color="#15b4d5"/>
    </linearGradient>
    <linearGradient id="Degradado_sin_nombre_10" data-name="Degradado sin nombre 10" x1="55.91" y1="499.84" x2="180.3" y2="499.84" gradientUnits="userSpaceOnUse">
      <stop offset="0" stop-color="#00ead0"/>
      <stop offset="1" stop-color="#00d1d8"/>
    </linearGradient>
    <linearGradient id="Degradado_sin_nombre_12" data-name="Degradado sin nombre 12" x1="19.09" y1="358.43" x2="143.47" y2="358.43" gradientUnits="userSpaceOnUse">
      <stop offset="0" stop-color="#00f8d0"/>
      <stop offset="1" stop-color="#01e2db"/>
    </linearGradient>
    <linearGradient id="Degradado_sin_nombre_15" data-name="Degradado sin nombre 15" x1="59.84" y1="220.95" x2="184.23" y2="220.95" gradientUnits="userSpaceOnUse">
      <stop offset="0" stop-color="#00f3d0"/>
      <stop offset="1" stop-color="#04d8d6"/>
    </linearGradient>
    <linearGradient id="Degradado_sin_nombre_18" data-name="Degradado sin nombre 18" x1="160.98" y1="122.26" x2="285.37" y2="122.26" gradientUnits="userSpaceOnUse">
      <stop offset=".01" stop-color="#02dbd2"/>
      <stop offset="1" stop-color="#04bed6"/>
    </linearGradient>
    <linearGradient id="Degradado_sin_nombre_21" data-name="Degradado sin nombre 21" x1="304.85" y1="92.15" x2="429.23" y2="92.15" gradientUnits="userSpaceOnUse">
      <stop offset="0" stop-color="#0cacd5"/>
      <stop offset="1" stop-color="#357fc7"/>
    </linearGradient>
    <linearGradient id="Degradado_sin_nombre_9" data-name="Degradado sin nombre 9" x1="443.64" y1="130.77" x2="568.02" y2="130.77" gradientUnits="userSpaceOnUse">
      <stop offset="0" stop-color="#357fc7"/>
      <stop offset="1" stop-color="#5d62bc"/>
    </linearGradient>
    <linearGradient id="Degradado_sin_nombre_16" data-name="Degradado sin nombre 16" x1="545.11" y1="234.05" x2="669.49" y2="234.05" gradientUnits="userSpaceOnUse">
      <stop offset="0" stop-color="#4d6dcd"/>
      <stop offset="1" stop-color="#783caf"/>
    </linearGradient>
  </defs>
  <circle class="cls-1" cx="357.87" cy="643.21" r="62.19"/>
  <circle class="cls-8" cx="219.9" cy="597.55" r="62.19"/>
  <circle class="cls-5" cx="118.1" cy="499.84" r="62.19"/>
  <circle class="cls-9" cx="81.28" cy="358.43" r="62.19"/>
  <circle class="cls-7" cx="122.03" cy="220.95" r="62.19"/>
  <circle class="cls-6" cx="223.18" cy="122.26" r="62.19"/>
  <circle class="cls-4" cx="367.04" cy="92.15" r="62.19"/>
  <circle class="cls-3" cx="505.83" cy="130.77" r="62.19"/>
  <circle class="cls-2" cx="607.3" cy="234.05" r="62.19"/>
  <g>
    <path d="M575.04,405.28c0,24.17-7.55,42.66-22.66,55.46-15.11,12.8-36.59,19.2-64.45,19.2h-20.43v79.89h-47.62v-224.61h71.75c27.24,0,47.96,5.86,62.14,17.59,14.18,11.73,21.28,29.22,21.28,52.46ZM467.5,440.93h15.67c14.65,0,25.6-2.89,32.88-8.68,7.27-5.79,10.91-14.21,10.91-25.27s-3.05-19.41-9.14-24.73c-6.09-5.32-15.65-7.99-28.65-7.99h-21.66v66.68Z"/>
    <path d="M709.62,384.85c6.35,0,11.62.46,15.82,1.38l-3.53,43.94c-3.79-1.02-8.4-1.54-13.83-1.54-14.96,0-26.6,3.84-34.95,11.52-8.35,7.68-12.52,18.44-12.52,32.26v87.42h-46.86v-171.76h35.49l6.91,28.88h2.3c5.32-9.63,12.52-17.38,21.58-23.27,9.06-5.89,18.92-8.83,29.57-8.83Z"/>
    <path d="M912.72,473.65c0,27.96-7.37,49.83-22.12,65.6-14.75,15.77-35.28,23.66-61.61,23.66-16.49,0-31.03-3.61-43.63-10.83-12.6-7.22-22.28-17.59-29.04-31.11s-10.14-29.29-10.14-47.32c0-28.06,7.32-49.88,21.97-65.45,14.65-15.57,35.23-23.35,61.76-23.35,16.49,0,31.03,3.59,43.63,10.75,12.6,7.17,22.28,17.46,29.04,30.88,6.76,13.42,10.14,29.14,10.14,47.16ZM793.97,473.65c0,17,2.79,29.86,8.37,38.56,5.58,8.71,14.67,13.06,27.27,13.06s21.48-4.33,26.96-12.98c5.48-8.65,8.22-21.53,8.22-38.64s-2.77-29.75-8.3-38.25c-5.53-8.5-14.59-12.75-27.19-12.75s-21.51,4.22-27.04,12.67c-5.53,8.45-8.3,21.23-8.3,38.33Z"/>
    <path d="M1005.82,562.91c-20.18,0-36.03-7.83-47.55-23.5-11.52-15.67-17.28-37.38-17.28-65.14s5.86-50.11,17.59-65.83c11.73-15.72,27.88-23.58,48.47-23.58,21.61,0,38.1,8.4,49.47,25.2h1.54c-2.36-12.8-3.53-24.22-3.53-34.26v-55h47.01v239.05h-35.95l-9.06-22.28h-2c-10.65,16.9-26.88,25.35-48.7,25.35ZM1022.26,525.58c11.98,0,20.76-3.48,26.35-10.45,5.58-6.96,8.63-18.79,9.14-35.49v-5.07c0-18.44-2.84-31.65-8.53-39.64-5.68-7.99-14.93-11.98-27.73-11.98-10.45,0-18.57,4.43-24.35,13.29-5.79,8.86-8.68,21.74-8.68,38.64s2.92,29.57,8.76,38.02c5.84,8.45,14.18,12.67,25.04,12.67Z"/>
    <path d="M1272.22,559.83l-6.3-21.97h-2.46c-5.02,7.99-12.14,14.16-21.35,18.51-9.22,4.35-19.72,6.53-31.49,6.53-20.18,0-35.39-5.4-45.63-16.21-10.24-10.8-15.36-26.35-15.36-46.63v-112h46.86v100.32c0,12.39,2.2,21.69,6.61,27.88,4.4,6.2,11.42,9.29,21.05,9.29,13.11,0,22.58-4.38,28.42-13.13s8.76-23.28,8.76-43.55v-80.81h46.86v171.76h-35.95Z"/>
    <path d="M1411.71,562.91c-20.18,0-36.03-7.83-47.55-23.5-11.52-15.67-17.28-37.38-17.28-65.14s5.86-50.11,17.59-65.83c11.73-15.72,27.88-23.58,48.47-23.58,21.61,0,38.1,8.4,49.47,25.2h1.54c-2.36-12.8-3.53-24.22-3.53-34.26v-55h47.01v239.05h-35.95l-9.06-22.28h-2c-10.65,16.9-26.88,25.35-48.7,25.35ZM1428.15,525.58c11.98,0,20.76-3.48,26.35-10.45,5.58-6.96,8.63-18.79,9.14-35.49v-5.07c0-18.44-2.84-31.65-8.53-39.64-5.68-7.99-14.93-11.98-27.73-11.98-10.45,0-18.57,4.43-24.35,13.29-5.79,8.86-8.68,21.74-8.68,38.64s2.92,29.57,8.76,38.02c5.84,8.45,14.18,12.67,25.04,12.67Z"/>
    <path d="M1665.51,559.83l-9.06-23.35h-1.23c-7.89,9.94-16,16.82-24.35,20.66-8.35,3.84-19.23,5.76-32.65,5.76-16.49,0-29.47-4.71-38.95-14.13-9.47-9.42-14.21-22.84-14.21-40.25s6.38-31.67,19.13-40.33c12.75-8.65,31.98-13.44,57.69-14.36l29.8-.92v-7.53c0-17.41-8.91-26.12-26.73-26.12-13.73,0-29.86,4.15-48.39,12.44l-15.52-31.65c19.77-10.34,41.68-15.52,65.75-15.52s40.71,5.02,53,15.06c12.29,10.04,18.44,25.3,18.44,45.78v114.45h-32.72ZM1651.68,480.25l-18.13.61c-13.62.41-23.76,2.87-30.42,7.37-6.66,4.51-9.99,11.37-9.99,20.59,0,13.21,7.58,19.82,22.74,19.82,10.86,0,19.54-3.12,26.04-9.37,6.5-6.25,9.75-14.54,9.75-24.89v-14.13Z"/>
    <path d="M1721.89,388.08h51.31l32.42,96.63c2.76,8.4,4.66,18.33,5.68,29.8h.92c1.13-10.55,3.33-20.48,6.61-29.8l31.8-96.63h50.24l-72.67,193.73c-6.66,17.92-16.16,31.34-28.5,40.25-12.34,8.91-26.76,13.37-43.25,13.37-8.09,0-16.03-.87-23.81-2.61v-37.18c5.63,1.33,11.78,2,18.44,2,8.3,0,15.54-2.54,21.74-7.6,6.2-5.07,11.03-12.73,14.52-22.97l2.77-8.45-68.21-170.53Z"/>
  </g>
  <g>
    <path d="M542.33,662.24h-5.74l-10.09-33.47c-.48-1.48-1.01-3.35-1.61-5.61-.59-2.26-.9-3.61-.92-4.07-.5,3.01-1.3,6.3-2.39,9.88l-9.78,33.27h-5.74l-13.3-49.98h6.15l7.9,30.87c1.09,4.33,1.89,8.25,2.39,11.76.62-4.17,1.53-8.25,2.73-12.24l8.96-30.39h6.15l9.4,30.67c1.09,3.53,2.02,7.52,2.77,11.97.43-3.24,1.25-7.18,2.46-11.83l7.86-30.8h6.15l-13.37,49.98Z"/>
    <path d="M626.4,662.24h-27.86v-49.98h27.86v5.16h-22.05v16.1h20.72v5.13h-20.72v18.39h22.05v5.2Z"/>
    <path d="M672.49,662.24v-49.98h5.81v44.72h22.05v5.26h-27.86Z"/>
    <path d="M743.84,662.24v-49.98h5.81v44.72h22.05v5.26h-27.86Z"/>
    <path d="M854.24,662.24h-6.63l-27.32-41.95h-.27c.36,4.92.55,9.44.55,13.54v28.41h-5.37v-49.98h6.56l27.25,41.78h.27c-.05-.62-.15-2.59-.31-5.93-.16-3.34-.22-5.73-.17-7.16v-28.68h5.44v49.98Z"/>
    <path d="M930.86,662.24h-27.86v-49.98h27.86v5.16h-22.05v16.1h20.72v5.13h-20.72v18.39h22.05v5.2Z"/>
    <path d="M1005.15,648.94c0,4.4-1.6,7.83-4.79,10.29s-7.52,3.69-12.99,3.69c-5.93,0-10.49-.76-13.68-2.29v-5.61c2.05.87,4.29,1.55,6.7,2.05,2.42.5,4.81.75,7.18.75,3.87,0,6.79-.74,8.75-2.21,1.96-1.47,2.94-3.52,2.94-6.14,0-1.73-.35-3.15-1.04-4.26s-1.86-2.12-3.49-3.06c-1.63-.93-4.11-1.99-7.44-3.18-4.65-1.66-7.97-3.64-9.97-5.92-2-2.28-2.99-5.25-2.99-8.92,0-3.85,1.45-6.92,4.34-9.2s6.72-3.42,11.49-3.42,9.54.91,13.71,2.74l-1.81,5.06c-4.13-1.73-8.14-2.6-12.03-2.6-3.08,0-5.48.66-7.21,1.98-1.73,1.32-2.6,3.16-2.6,5.5,0,1.73.32,3.15.96,4.26.64,1.11,1.71,2.12,3.23,3.04s3.83,1.94,6.96,3.06c5.24,1.87,8.85,3.88,10.82,6.02s2.96,4.92,2.96,8.34Z"/>
    <path d="M1078.59,648.94c0,4.4-1.6,7.83-4.79,10.29s-7.52,3.69-12.99,3.69c-5.93,0-10.49-.76-13.68-2.29v-5.61c2.05.87,4.29,1.55,6.7,2.05,2.42.5,4.81.75,7.18.75,3.87,0,6.79-.74,8.75-2.21,1.96-1.47,2.94-3.52,2.94-6.14,0-1.73-.35-3.15-1.04-4.26s-1.86-2.12-3.49-3.06c-1.63-.93-4.11-1.99-7.44-3.18-4.65-1.66-7.97-3.64-9.97-5.92-2-2.28-2.99-5.25-2.99-8.92,0-3.85,1.45-6.92,4.34-9.2s6.72-3.42,11.49-3.42,9.54.91,13.71,2.74l-1.81,5.06c-4.13-1.73-8.14-2.6-12.03-2.6-3.08,0-5.48.66-7.21,1.98-1.73,1.32-2.6,3.16-2.6,5.5,0,1.73.32,3.15.96,4.26.64,1.11,1.71,2.12,3.23,3.04s3.83,1.94,6.96,3.06c5.24,1.87,8.85,3.88,10.82,6.02s2.96,4.92,2.96,8.34Z"/>
    <path d="M1192.4,662.24h-5.81v-44.82h-15.83v-5.16h37.47v5.16h-15.83v44.82Z"/>
    <path d="M1256.57,641.45v20.79h-5.81v-49.98h13.71c6.13,0,10.66,1.17,13.59,3.52,2.93,2.35,4.39,5.88,4.39,10.6,0,6.61-3.35,11.08-10.05,13.4l13.57,22.46h-6.87l-12.1-20.79h-10.43ZM1256.57,636.46h7.97c4.1,0,7.11-.81,9.03-2.44,1.92-1.63,2.87-4.07,2.87-7.33s-.97-5.69-2.92-7.15c-1.95-1.46-5.08-2.19-9.38-2.19h-7.56v19.11Z"/>
    <path d="M1360.48,662.24l-6.22-15.9h-20.04l-6.15,15.9h-5.88l19.76-50.19h4.89l19.66,50.19h-6.02ZM1352.44,641.11l-5.81-15.49c-.75-1.96-1.53-4.36-2.33-7.21-.5,2.19-1.22,4.59-2.15,7.21l-5.88,15.49h16.17Z"/>
    <path d="M1429.78,616.73c-5.49,0-9.83,1.83-13.01,5.49s-4.77,8.67-4.77,15.03,1.53,11.6,4.6,15.16c3.06,3.57,7.44,5.35,13.11,5.35,3.49,0,7.46-.63,11.93-1.88v5.09c-3.46,1.3-7.74,1.95-12.82,1.95-7.36,0-13.04-2.23-17.04-6.7-4-4.47-6-10.81-6-19.04,0-5.15.96-9.66,2.89-13.54,1.93-3.87,4.71-6.86,8.34-8.96,3.63-2.1,7.91-3.15,12.84-3.15,5.24,0,9.82.96,13.74,2.87l-2.46,4.99c-3.78-1.78-7.57-2.67-11.35-2.67Z"/>
    <path d="M1523.66,662.24h-6.84l-18.22-24.24-5.23,4.65v19.59h-5.81v-49.98h5.81v24.79l22.67-24.79h6.87l-20.1,21.71,20.86,28.27Z"/>
    <path d="M1593.4,662.24h-27.86v-49.98h27.86v5.16h-22.05v16.1h20.72v5.13h-20.72v18.39h22.05v5.2Z"/>
    <path d="M1645.3,641.45v20.79h-5.81v-49.98h13.71c6.13,0,10.66,1.17,13.59,3.52,2.93,2.35,4.39,5.88,4.39,10.6,0,6.61-3.35,11.08-10.05,13.4l13.57,22.46h-6.87l-12.1-20.79h-10.43ZM1645.3,636.46h7.97c4.1,0,7.11-.81,9.03-2.44,1.92-1.63,2.87-4.07,2.87-7.33s-.97-5.69-2.92-7.15c-1.95-1.46-5.08-2.19-9.38-2.19h-7.56v19.11Z"/>
  </g>
</svg>