<?xml version="1.0" encoding="UTF-8"?>
<svg id="Capa_1" data-name="Capa 1" xmlns="http://www.w3.org/2000/svg" viewBox="0 0 483.43 483.43">
  <defs>
    <style>
      .cls-1 {
        fill: #3085c9;
      }
    </style>
  </defs>
  <path class="cls-1" d="M0,337.37c3.98-5.65,8.77-4.95,15.11-4.71V49.47c0-6.01,12.44-18.38,18.41-18.38h170.43V13.66c0-1.16,5.04-5.81,7.04-5.22,19.45,1.47,41.39-1.81,60.53-.02,2.49.23,7.97,2.8,7.97,5.25v17.43h170.43c5.97,0,18.41,12.36,18.41,18.38v283.18c6.34-.24,11.13-.94,15.11,4.71v28.27c-1.06.73-4.27,4.71-5.19,4.71h-142.1l33.97,99.33c-.57,3.27-2.88,5.64-6.17,6.16-7.65,1.19-30.53.84-38.7.1-3.11-.28-5.12-.61-6.91-3.47l-12.36-33.84-127.85-.3-1.39,1.44c-4.15,9.51-6.47,22.39-11.01,31.42-.77,1.53-1.36,2.76-2.95,3.65h-46.05c-3.26-2.12-4.15-5.76-3-9.37l33.58-95.12H5.19c-.93,0-4.13-3.98-5.19-4.71v-28.27ZM264.38,23.56h-45.32v7.54h45.32v-7.54ZM30.21,52.3v280.35h423.01V52.3c0-3.13-5.68-6.74-8.92-6.18H39.14c-3.78-.17-8.26,2.4-8.92,6.18ZM468.33,347.73H15.11v7.54h453.22v-7.54ZM185.06,370.35h-21.72l-31.16,90.47h21.72l31.16-90.47ZM190.73,400.51h101.97l-10.48-30.06-80.53-.16-10.96,30.21ZM320.09,370.35h-21.72l31.16,90.47h21.72l-31.16-90.47ZM183.18,423.12h117.08l-2.46-7.6h-112.16l-2.46,7.6Z"/>
  <path class="cls-1" d="M370.13,129.1c4.15,3.4,9.65,4.57,13.68,8.49,15.4,14.97,9.91,41.64-9.92,49.45-27.77,10.94-52.5-19.58-36.26-44.67,4.5-6.94,10.32-9.12,17.26-12.93,1.29-12.23-1.29-26.58.11-38.53.6-5.1,3.2-6.65,8-7.09,10.56-.96,35.07-1.18,45.39.02,15.87,1.84.29,18.71.66,22.95.33,3.79,6.67,9.92,6.47,15.21-.09,2.46-2.96,7.09-5.26,7.09h-40.13ZM395.62,98.95h-25.49v15.08h25.49c-3.43-5.38-3.42-9.71,0-15.08ZM355.02,147.01c-8.07,3.45-9.65,13.35-4.95,20.49,9.9,15.05,32.59,3.13,26.71-13.47-.84-2.38-3.82-6.94-6.65-7.02v14.61c0,2.1-5.46,5.4-8.01,5.28-2.14-.1-7.1-3.59-7.1-5.28v-14.61Z"/>
  <path class="cls-1" d="M289.26,179.66c-5.7-5.7,1.14-11.52.61-11.91-51.8,3.2-100.12,23.19-139.76,56.05-4.51,3.74-13.48,16.67-19.83,8.26s7.45-17.46,13.22-22.4c40.38-34.58,95.24-54.32,148.26-57.01-7.8-5.48-4.83-18.35,4.96-15.79,2.25.59,17.53,15.28,19.08,17.73,2.34,3.71,2,6.38-.43,9.85-1.59,2.28-14.66,15.07-16.84,16.17-3.5,1.77-6.29,2.02-9.27-.95Z"/>
  <path class="cls-1" d="M94.19,234.9c40.52-5.3,46.68,56.92,6.36,60.05s-44.56-55.06-6.36-60.05ZM95.11,249.95c-18.63,3.34-14.21,33.37,6.17,29.71,18.63-3.34,14.21-33.37-6.17-29.71Z"/>
  <path class="cls-1" d="M231.94,71.01c7.4,7.38-4.85,14.74-9.04,20.06-.58,3.3,17.68,12.12,9.04,20.74-7.39,7.38-14.77-4.84-20.1-9.02-3.3-.57-12.14,17.64-20.78,9.02-7.4-7.38,4.85-14.74,9.04-20.06.58-3.3-17.68-12.12-9.04-20.74,7.39-7.38,14.77,4.84,20.1,9.02,3.3.57,12.14-17.64,20.78-9.02Z"/>
  <path class="cls-1" d="M118.64,123.78c7.4,7.38-4.85,14.74-9.04,20.06-.58,3.3,17.68,12.12,9.04,20.74-7.39,7.38-14.77-4.84-20.1-9.02-3.3-.57-12.14,17.64-20.78,9.02-7.4-7.38,4.85-14.74,9.04-20.06.58-3.3-17.68-12.12-9.04-20.74,7.39-7.38,14.77,4.84,20.1,9.02,3.3.57,12.14-17.64,20.78-9.02Z"/>
  <path class="cls-1" d="M360.35,229.33c7.4,7.38-4.85,14.74-9.04,20.06-.58,3.3,17.68,12.12,9.04,20.74-7.39,7.38-14.77-4.84-20.1-9.02-3.3-.57-12.14,17.64-20.78,9.02-7.4-7.38,4.85-14.74,9.04-20.06.58-3.3-17.68-12.12-9.04-20.74,7.39-7.38,14.77,4.84,20.1,9.02,3.3.57,12.14-17.64,20.78-9.02Z"/>
  <path class="cls-1" d="M247.05,267.02c7.4,7.38-4.85,14.74-9.04,20.06-.58,3.3,17.68,12.12,9.04,20.74s-17.48-9.6-20.78-9.02c-5.33,4.18-12.7,16.41-20.1,9.02-7.4-7.38,4.85-14.74,9.04-20.06.58-3.3-17.68-12.12-9.04-20.74,7.39-7.38,14.77,4.84,20.1,9.02,3.3.57,12.14-17.64,20.78-9.02Z"/>
  <path class="cls-1" d="M92.8,270.2c-7.01-7.01,4.49-18.01,11.09-10.59,6.76,7.6-4.3,17.39-11.09,10.59Z"/>
</svg>