<?xml version="1.0" encoding="UTF-8"?>
<svg id="Capa_1" data-name="Capa 1" xmlns="http://www.w3.org/2000/svg" viewBox="0 0 483.43 483.43">
  <defs>
    <style>
      .cls-1 {
        fill: #3085c9;
      }
    </style>
  </defs>
  <path class="cls-1" d="M0,281.77c8.45-34.48,45.79-20.55,71.17-23.54,6.23-.73,8.17-6.87,10.98-11.64,15.73-26.69,32.22-76.97,70.04-76.97h16.49v-15.08c-10.63-5.3-19.2-16.75-22.14-28.28-2.75-10.82-2.71-50.86.95-61.22,2.71-7.66,8.81-16.29,15.26-21.17-9.78-29.32,20.99-54.17,47.69-38.05,9.95,6.01,15.81,18.83,14.67,30.36-.22,2.24-2.06,5.63-1.63,7.45.23.98,10.45,11.33,12.61,15.7,6.71,13.57,6.33,41.77,5.18,57.09-1.02,13.56-7.47,25.43-17.49,34.34-1.12,1-7.05,4.28-7.05,5.2v13.66h16.49c17.92,0,35.62,14.6,44.58,28.92,11.33,18.1,19.95,39.03,31.33,57.25,1.86,1.31,3.76,2.16,6.05,2.43,20.67,2.46,54.23-8.08,66.65,13.46,11.16,19.36-1.42,41.22-23.24,43.1-14.79,1.27-56.81,1.53-69.8-2.83-7.53-2.53-16.61-9-21.56-15.19-3.74-4.68-5.78-10.67-9.97-15v62.67c0,2.37,4.19,8.11,6.15,9.87,15.46,13.92,58.85,31.91,64.81,51.1,6.23,20.06-5.67,33.93-23.84,39.86-16.46,5.37-34.15,8.67-50.72,13.83-1.53,12.44-11.36,20.77-22.78,24.34h-10.37l-143.75-39.54c-5.97-2.15-11.97-6.6-15.36-11.97-25.35-40.18,42.6-57.86,62.5-78.55,2.23-2.32,5.2-8.76,5.2-11.77v-59.84c-2.22-.45-1.51.27-2.11,1.21-8.35,13.05-11.61,21.85-27.55,28.02-14.14,5.47-55.51,5.06-71.67,3.79-14.71-1.16-24.01-9.51-27.77-23.59v-9.42ZM177.17,35.81c10.15-3.43,20.53-3.96,30.65-.15,3.77-4.79-1.4-12.89-5.68-15.87-11.76-8.21-27.24,2.15-24.97,16.02ZM161.14,74.92c-.59,4.15.42,9.37,0,13.66,9.07-.13,19.95-2.05,28-6.4,2.02-1.09,3.22-3.1,5.26-4.16,13.64-7.06,18.01,9.61,30.81,10.55,3.54-26.04-20.42-47.51-45.49-36.54-8.17,3.58-17.32,13.92-18.59,22.88ZM225.18,104.64c-4.31-.47-9.19-1.6-13.15-3.34-3.36-1.48-9.72-7.33-12.5-6.91-11.69,6.37-24.05,10.34-37.51,10.62-8.55,53.7,69.58,54.05,63.15-.37ZM200.72,161.14c-5.69.92-10.33.92-16.02,0v18.38c0,.61,3.38,4.77,4.19,5.23,3.87,2.23,11.83-.23,11.83-4.29v-19.32ZM145.12,233.24v97.54h96.12v-98.48c0-5.1,9.89-8.64,14.14-3.51,3.58,4.32,1.19,12.24,1.85,17.67.46,3.74,18.53,35.1,21.86,39.4,3.85,4.96,9.96,9.52,16.03,11.3,10.27,3.01,49.67,2.68,61.59,1.62,17.61-1.55,16.12-22.41,2.73-24.48-21.48-3.32-51.23,8.77-65.25-12.02-11.28-16.74-19.25-38.45-30.18-55.58-11.24-17.62-27.59-23.25-48.23-20.58-8.84,21.14-37.44,21.07-45.85-.5-10.59-.24-20.63-.2-30.35,4.4-21.84,10.33-34.07,53.5-48.34,73.23-13.04,18.04-42.59,9.19-62.55,10.95-17.12,1.51-17.3,23.02.95,24.57,12.28,1.05,49.92,1.42,60.63-1.63,4.58-1.31,10.65-4.77,13.99-8.15,3.53-3.59,22.72-35.8,24.1-40.45,1.65-5.56-.03-10.9.79-16.17,1.42-9.08,14.46-7.64,15.96.89ZM242.19,346.79l-97.91.1c-1.37,7.87-4.89,14.5-10.95,19.67-16.16,13.8-39.93,24.25-56.67,38.04-6.12,7.32-5.68,16.31,2.02,22.3l147.84,40.47c12.38-1.45,15.42-18.42,4.26-23.89l-96.55-27.85c-9.36-4.5-6.5-16.59,5.63-15.04,16.14,2.06,36.16,12.4,52.83,15.01,17.07-2.84,35.55-11.98,52.26-14.66,11.79-1.89,16.89,8.14,9.03,13.73-6.6,4.69-23.15,5.08-30.65,9.88,11.56,2.3,23.2,6.62,27.9,18.45,15.56-4.9,32.02-7.65,47.48-12.8,4.61-1.53,9.2-2.43,12.1-6.75,5.49-8.16,2.83-15.18-4.25-20.89-14.45-11.64-53.65-30.81-61.4-45.09-1.68-3.1-3.25-7.14-3-10.67Z"/>
  <path class="cls-1" d="M369.22,1.22c82.73-6.78,141.06,82.59,99.9,155.5-36.6,64.82-127.96,71.92-173.59,12.81C244.82,103.83,287.06,7.96,369.22,1.22ZM370.35,17.9c-1.94-1.91-25.54,4.38-28.82,7.52-.82,1.37,3.41,5.94,3.89,7.52,2.25,7.44-5.1,13.95-11.76,9.86l-7.14-8.91c-7.9,5.3-15.08,12.18-20.08,20.31.17,2.21,13.7,5.43,9.02,14.84-4.96,9.94-16.17-.77-17.7.16-3.02,2.88-8.88,26.48-7.52,27.87,7.44-.88,17.05,1.2,14.88,10.64-1.65,7.22-9.27,5.23-14.88,5.38-1.7,1.73,4.6,25.6,7.52,28.82,1.63.98,11.81-9.74,17.38-.47,5.93,9.86-8.49,13.03-8.69,15.46,1.06,3.83,19.09,22.06,21.47,20.27,1.29-7.52,11.05-14.81,16.47-6.56,4.82,7.35-4.11,12.97-2.86,15.06,3.21,2.91,27.08,9.22,28.82,7.52-3.9-20.8,18.91-20.13,16.01,0,1.39,1.36,24.99-4.5,27.87-7.52.98-1.63-9.4-11.91-.47-17.38,10.02-6.14,13.09,9.4,16.3,8.81,2.03-2.13,4.56-3.64,6.74-5.56,2.79-2.46,10.68-10.33,12.23-13.22.49-.91.68-1.77.43-2.78-6.92-1.74-14.19-9.13-7.55-15.65,7.04-6.92,15.24,4.06,17.01,2.41,2.58-9.61,7.23-18.93,6.61-29.22-20.9,3.67-19.8-18.88,0-16.01.4-9.91-4.13-18.94-6.61-28.28-.91-.83-8.59,4.53-10.88,4.68-6.26.43-11.06-6.74-7.4-12.14.62-3.14,9.23-5.14,8.9-7.15-.5-3.02-16.49-19.09-19.52-20.11-.71-.24-1.43-.26-2.15-.12-.96,7.6-11.41,14.7-16.45,6.49-4.04-6.57,1.85-9.97,3.22-15.94-9.34-2.48-18.37-7.01-28.28-6.61,2.86,19.82-19.69,20.88-16.01,0Z"/>
  <path class="cls-1" d="M375.73,57.68c5.11-1.17,9.04,1.34,10.23,6.33,1.78,7.45-1.34,34.08.88,37.76,4.44,4.13,21.01,11.75,22.66,16.92,1.79,5.62-2.15,11.54-8.2,10.85-2.83-.32-23.84-14.3-27.11-17.01-1.16-.97-3.25-2.47-3.66-3.88l-.17-45.96c.42-2.24,3.19-4.51,5.36-5.01Z"/>
</svg>