<?xml version="1.0" encoding="UTF-8"?>
<svg id="Capa_1" data-name="Capa 1" xmlns="http://www.w3.org/2000/svg" viewBox="0 0 483.43 483.43">
  <defs>
    <style>
      .cls-1 {
        fill: #3085c9;
      }
    </style>
  </defs>
  <path class="cls-1" d="M153.61,483.43c-4.1-2.89-5-7.03-2.71-11.65l48.51-57.92c23.14-4.85,47.18-5.78,70.6-9.55,8.33.11,10.76,10.86,3.28,13.7l-65.99,8.45-48.05,56.97h-5.65Z"/>
  <path class="cls-1" d="M378.84,255.58c15.18-16.1,42.71-9.81,47.11,12.24.61.57,7.01-4.42,8.46-5.19,26.19-13.92,51.5,15.02,35.67,39.41-34.99,29.61-68.81,61.73-104.94,90.05-14.15,11.09-24.48,17.28-42.64,20.48-5.1.9-22.37,3.42-26.03,1.1-5.06-3.2-2.74-11.41,3.9-12.86,15.74-3.43,32.71-1.51,46.71-12.64l109.48-92.1c9.42-10.32,2.19-24.91-12.19-22.53-2.7.45-5.34,3.05-7.56,4.68-21.54,15.74-42.49,40.04-64.11,54.58-17.17,11.56-54.78,2.93-75.37,5.67-6.07,4.45-12.02,10.17-19.89,11.2-21.75,2.84-49.12-1.9-71.48.02-7.45-1.16-7.91-12.6,1.91-13.98,19.47-2.74,44.79,1.75,64.98-.05,20.56-1.83,22.29-29.37,3.31-35.4-36.12,1.07-74.99-2.86-110.82-.46-31.27,2.1-61.49,21.06-78.1,47.19-4.6,7.24-7.63,15.32-12.41,22.43-11.69,17.37-36.48,49.1-50.79,64.12-3.47,3.64-5.2,6.15-10.91,4.27-4.1-1.35-4.71-7.03-2.63-10.28l53.02-66.59c16.79-40.06,54.62-71.94,99.05-75.22,34.45-2.55,77-.5,112.17-.06,1.88.02,3.56.92,5.43.84,18.39-13.56,35.22-32.14,53.51-45.44,18.01-13.1,38.93-7.06,45.17,14.51ZM303.45,318.66l58.44-48.47c9.27-11.69-2.84-27.3-16.35-20.1l-51.1,43.18c-1.02,2.05,3.12,5.35,4.13,7.21,3.07,5.63,5.35,11.65,4.89,18.19ZM320.41,324.32h37.22c7.12,0,42.31-35.54,51.02-40.82,10.66-10.86-.79-27.51-14.45-21.49l-73.8,62.31Z"/>
  <path class="cls-1" d="M166.81,232.99c2.16.45,1.5-.24,2.11-1.2,4.27-6.8,6.84-18.81,11.19-25.51.91-1.4,2.02-2.4,3.6-3,13.71.4,30.51-1.99,43.89-.44,8.94,1.03,8.73,12.37,1.66,13.94-5.77,1.28-37.34-.96-38.8.31-3.74,7.76-9.25,29.16-17.98,31.46-4.29,1.13-8.84.82-12.59-1.6-6.16-3.97-11.46-22.79-14.87-29.86-16.85.24-31.31.72-46.36-7.82-19.26-10.93-28.58-29.37-29.91-51.09-1.75-28.58-1.84-70.37.05-98.89,2-30.17,22.88-55.5,54.14-57.95,54.21-4.25,113.92,3.24,168.7.05,80.21,11.55,46,108.68,53.14,164.17-3.29,26.89-25.97,49.2-53.14,51.41-6.81.55-29.83,1.11-35.6-.18-7.73-1.74-6.82-12.65-.18-13.9,9.01-1.71,23.86.8,33.89-.04,21.79-1.82,39.31-19.08,41.04-40.91,2.71-34.17-2.08-71.87-.05-106.41-2.59-22.18-19.67-38.4-41.88-40.07-52.88-3.97-110.65,3.07-164.04,0-26.08,3.13-40.38,20.91-41.94,46.6-1.67,27.46-1.54,65.76,0,93.29,1.34,24.04,14.59,44.72,40.21,47.39,6.76.7,26.34-1.46,30.49,1.55,3.88,2.81,10.21,23.38,13.23,28.69Z"/>
  <path class="cls-1" d="M256.31,90.82c-2.9,2.82-6.52,5.34-9.43,7.99-11.57,10.55-24.29,26.04-36.3,35.29-2.75,2.12-4.29,3.64-8.03,2.44-1.41-.45-17.71-16.2-18.31-17.5-2.75-5.95,3.15-11.96,9.45-9.48,3.06,1.21,10.49,10.42,11.26,10.42l43.75-42.69c-12.05-15.08-29.07-22.26-48.45-20.36-5.37.52-16.02,5.8-18.78,5.64s-6.58-3.81-6.97-6.32c-1.09-6.88,9.55-9.9,14.71-11.3,25.55-6.95,53.23,1.44,69.5,22.33,2.6.64,18.67-18.49,22.36-20,7.37-3.02,13.59,3.4,9.61,9.59-4.64,7.22-17.64,16.48-23.85,23.09,24.16,51.88-21.77,107.25-77.61,92.49-39.73-10.5-59.69-56.19-41.77-92.98,2.57-5.27,8.11-15.5,15.14-10.34,7.51,5.52-1.25,13.42-3.77,19.81-11.26,28.59,4.32,62.47,34.53,69.97,41.69,10.36,76.34-27.82,62.97-68.11Z"/>
</svg>